<svg xmlns="http://www.w3.org/2000/svg" viewBox="0 0 24 24" role="img" aria-label="Beleidsadviseur">
  <circle cx="12" cy="12" r="12" fill="#002EA3" />
  <g fill="none" stroke="#F7F4EF" stroke-width="1.3" stroke-linecap="round" stroke-linejoin="round" transform="translate(5.5 5.5) scale(0.54)">
    <path d="M19.5 14.25v-2.625a3.375 3.375 0 0 0-3.375-3.375h-1.5A1.125 1.125 0 0 1 13.5 7.125v-1.5a3.375 3.375 0 0 0-3.375-3.375H8.25m0 12.75h7.5m-7.5 3H12M10.5 2.25H5.625c-.621 0-1.125.504-1.125 1.125v17.25c0 .621.504 1.125 1.125 1.125h12.75c.621 0 1.125-.504 1.125-1.125V11.25a9 9 0 0 0-9-9Z" />
  </g>
</svg>
