<svg xmlns="http://www.w3.org/2000/svg" viewBox="0 0 24 24" role="img" aria-label="Ruimtemeesters Assistent">
  <circle cx="12" cy="12" r="12" fill="#002EA3" />
  <g fill="none" stroke="#F7F4EF" stroke-width="1.3" stroke-linecap="round" stroke-linejoin="round" transform="translate(5.5 5.5) scale(0.54)">
    <path d="M9.813 15.904 9 18.75l-.813-2.846a4.5 4.5 0 0 0-3.09-3.09L2.25 12l2.846-.813a4.5 4.5 0 0 0 3.09-3.09L9 5.25l.813 2.846a4.5 4.5 0 0 0 3.09 3.09L15.75 12l-2.846.813a4.5 4.5 0 0 0-3.09 3.09ZM18 10.5l-.35-1.225a2.25 2.25 0 0 0-1.55-1.55L15 7.5l1.225-.35a2.25 2.25 0 0 0 1.55-1.55L18 4.5l.35 1.225a2.25 2.25 0 0 0 1.55 1.55L21 7.5l-1.225.35a2.25 2.25 0 0 0-1.55 1.55L18 10.5Z" />
  </g>
</svg>
